<svg width="32" height="40" viewBox="0 0 32 40" fill="none" xmlns="http://www.w3.org/2000/svg">
<path fill-rule="evenodd" clip-rule="evenodd" d="M7.2718 8.57142C7.2718 6.29814 8.19137 4.11796 9.82823 2.51051C11.4651 0.903058 13.6851 0 16 0C18.3149 0 20.5349 0.903058 22.1718 2.51051C23.8086 4.11796 24.7282 6.29814 24.7282 8.57142C24.7282 10.8447 23.8086 13.0249 22.1718 14.6323C20.5349 16.2398 18.3149 17.1428 16 17.1428C13.6851 17.1428 11.4651 16.2398 9.82823 14.6323C8.19137 13.0249 7.2718 10.8447 7.2718 8.57142ZM0.000231595 35.4381C0.0656355 31.3133 1.78009 27.3791 4.77351 24.4849C7.76694 21.5907 11.7992 19.9685 16 19.9685C20.2008 19.9685 24.2331 21.5907 27.2265 24.4849C30.2199 27.3791 31.9344 31.3133 31.9998 35.4381C32.0048 35.7158 31.9273 35.9889 31.7768 36.224C31.6262 36.4591 31.4092 36.646 31.1522 36.7619C26.3985 38.9023 21.2295 40.0069 16 40C10.5963 40 5.46215 38.8419 0.847838 36.7619C0.590813 36.646 0.373751 36.4591 0.223212 36.224C0.0726736 35.9889 -0.00481377 35.7158 0.000231595 35.4381Z" fill="url(#paint0_linear_14007_879)"/>
<defs>
<linearGradient id="paint0_linear_14007_879" x1="16" y1="0" x2="16" y2="40" gradientUnits="userSpaceOnUse">
<stop stop-color="white"/>
<stop offset="1" stop-color="#F8C6C6" stop-opacity="0.5"/>
</linearGradient>
</defs>
</svg>
